{"asset":{"version":"2.0","generator":"babylon.js glTF exporter for 3dsmax 2021 v20210115.1"},"scene":0,"scenes":[{"nodes":[0,3]}],"nodes":[{"children":[1,2],"translation":[-0.0185142644,-1.93786619E-07,0.371699035],"name":"ISS Station"},{"mesh":0,"translation":[-0.417446136,-1.058956,-7.024765E-07],"rotation":[0.7071068,-0.7071068,1.41894873E-07,-2.570972E-07],"name":"ISS Station (1)"},{"mesh":1,"translation":[-0.417446136,-1.058956,-7.024765E-07],"rotation":[0.7071068,-0.7071068,1.41894873E-07,-2.570972E-07],"name":"solar panels"},{"name":"Default light"}],"meshes":[{"primitives":[{"attributes":{"POSITION":1,"NORMAL":2,"TEXCOORD_0":3},"indices":0,"material":0}],"name":"ISS Station"},{"primitives":[{"attributes":{"POSITION":5,"NORMAL":6,"TEXCOORD_0":7},"indices":4,"material":1}],"name":"solar panels"}],"accessors":[{"bufferView":0,"componentType":5123,"count":9948,"type":"SCALAR","name":"accessorIndices"},{"bufferView":1,"componentType":5126,"count":9948,"max":[1.62931561,3.96093369,1.115413],"min":[-3.747228,-4.832854,-0.37201497],"type":"VEC3","name":"accessorPositions"},{"bufferView":1,"byteOffset":119376,"componentType":5126,"count":9948,"type":"VEC3","name":"accessorNormals"},{"bufferView":2,"componentType":5126,"count":9948,"type":"VEC2","name":"accessorUVs"},{"bufferView":0,"byteOffset":19896,"componentType":5123,"count":696,"type":"SCALAR","name":"accessorIndices"},{"bufferView":1,"byteOffset":238752,"componentType":5126,"count":696,"max":[1.6221087,3.96093369,0.0190620385],"min":[-3.74002123,-4.832854,-0.0404691026],"type":"VEC3","name":"accessorPositions"},{"bufferView":1,"byteOffset":247104,"componentType":5126,"count":696,"type":"VEC3","name":"accessorNormals"},{"bufferView":2,"byteOffset":79584,"componentType":5126,"count":696,"type":"VEC2","name":"accessorUVs"}],"bufferViews":[{"buffer":0,"byteLength":21288,"name":"bufferViewScalar"},{"buffer":0,"byteOffset":21288,"byteLength":255456,"byteStride":12,"name":"bufferViewFloatVec3"},{"buffer":0,"byteOffset":276744,"byteLength":85152,"byteStride":8,"name":"bufferViewFloatVec2"}],"buffers":[{"uri":"iss-station.bin","byteLength":361896}],"materials":[{"pbrMetallicRoughness":{"baseColorFactor":[0.5,0.5,0.5,1.0],"metallicFactor":0.0,"roughnessFactor":0.0},"name":"white"},{"pbrMetallicRoughness":{"baseColorFactor":[0.07450981,0.003921569,0.996078432,1.0],"metallicFactor":0.0,"roughnessFactor":0.0},"name":"blue"}]}